#!OML:ASF H:\Dans Jumps\Project 1\Capture day 1\Session 1\subject.ASF
:FULLY-SPECIFIED
:DEGREES
144
root 0.579869 17.5969 -13.7656 6.85234 -0.538767 -1.12963
lowerback -2.97304 -0.688645 -0.463437
upperback 1.36105 -0.951413 1.78336
thorax 3.10463 -0.502776 2.04135
lowerneck -13.663 0.458947 -1.86167
upperneck 14.0114 1.00236 0.028367
head 6.50364 0.385773 0.408677
rclavicle -4.67144e-015 8.74653e-015
rhumerus -27.4187 -18.653 -77.9763
rradius 22.7639
rwrist 34.4423
rhand -19.3623 -26.8818
rfingers 7.12502
rthumb 6.95545 -56.7476
lclavicle -4.67144e-015 8.74653e-015
lhumerus -23.0482 5.52589 86.1277
lradius 14.6376
lwrist -0.981432
lhand -25.6536 -4.77415
lfingers 7.12502
lthumb 0.880311 25.2038
rfemur -11.5997 -3.4286 20.2392
rtibia 20.0261
rfoot -14.2703 -3.74028
rtoes 13.9311
lfemur -10.4334 8.72965 -19.7017
ltibia 16.9649
lfoot -11.6628 3.59033
ltoes 2.65426
145
root 0.580663 17.5967 -13.7656 6.84466 -0.539263 -1.12923
lowerback -2.97691 -0.68785 -0.464761
upperback 1.36316 -0.950317 1.78246
thorax 3.10896 -0.502284 2.04118
lowerneck -13.667 0.459352 -1.86146
upperneck 14.0125 1.00314 0.0273644
head 6.50465 0.386058 0.408413
rclavicle -1.93815e-015 5.1684e-015
rhumerus -27.4189 -18.6545 -77.9793
rradius 22.7713
rwrist 34.4261
rhand -19.3644 -26.8841
rfingers 7.12502
rthumb 6.95339 -56.7499
lclavicle -1.93815e-015 5.1684e-015
lhumerus -23.0382 5.55312 86.1184
lradius 14.6337
lwrist -1.00207
lhand -25.6559 -4.74976
lfingers 7.12502
lthumb 0.878091 25.2282
rfemur -11.5918 -3.42761 20.2351
rtibia 20.0287
rfoot -14.2731 -3.74129
rtoes 13.9301
lfemur -10.4262 8.73419 -19.7038
ltibia 16.9687
lfoot -11.6672 3.58386
ltoes 2.66772
146
root 0.581395 17.5965 -13.7656 6.83766 -0.537552 -1.13148
lowerback -2.98327 -0.688106 -0.464338
upperback 1.36819 -0.950801 1.78328
thorax 3.11776 -0.502606 2.04168
lowerneck -13.6755 0.459928 -1.86119
upperneck 14.0116 1.00455 0.0243364
head 6.50585 0.386495 0.407563
rclavicle 3.926e-015 1.07344e-014
rhumerus -27.4143 -18.6473 -77.9859
rradius 22.7812
rwrist 34.4022
rhand -19.3675 -26.8869
rfingers 7.12502
rthumb 6.95037 -56.7527
lclavicle 3.926e-015 1.07344e-014
lhumerus -23.0252 5.58292 86.1103
lradius 14.6309
lwrist -1.01951
lhand -25.6596 -4.72589
lfingers 7.12502
lthumb 0.874532 25.2521
rfemur -11.5842 -3.42558 20.2345
rtibia 20.03
rfoot -14.2744 -3.74584
rtoes 13.9259
lfemur -10.4217 8.73591 -19.7028
ltibia 16.9755
lfoot -11.6712 3.57873
ltoes 2.68398
147
root 0.58209 17.5962 -13.7657 6.83142 -0.532458 -1.13589
lowerback -2.99018 -0.690326 -0.462797
upperback 1.3735 -0.954019 1.78605
thorax 3.12729 -0.504296 2.04339
lowerneck -13.6817 0.461871 -1.86151
upperneck 14.0081 1.008 0.0204994
head 6.50578 0.387839 0.406723
rclavicle 4.67144e-015 -1.98785e-015
rhumerus -27.4096 -18.6329 -77.9931
rradius 22.7914
rwrist 34.3786
rhand -19.3718 -26.8856
rfingers 7.12502
rthumb 6.94627 -56.7516
lclavicle 4.67144e-015 -1.98785e-015
lhumerus -23.0133 5.61107 86.1041
lradius 14.6284
lwrist -1.03057
lhand -25.6619 -4.70058
lfingers 7.12502
lthumb 0.872318 25.2774
rfemur -11.577 -3.42333 20.2368
rtibia 20.031
rfoot -14.2754 -3.75359
rtoes 13.9179
lfemur -10.4195 8.7343 -19.6991
ltibia 16.9842
lfoot -11.6759 3.57432
ltoes 2.69969
148
root 0.582795 17.596 -13.7659 6.82606 -0.527245 -1.14145
lowerback -2.99629 -0.693521 -0.460429
upperback 1.37864 -0.958612 1.79024
thorax 3.13626 -0.506666 2.04605
lowerneck -13.6901 0.465848 -1.859
upperneck 14.0056 1.01446 0.0120182
head 6.5064 0.390378 0.404231
rclavicle -1.93815e-015 9.14409e-015
rhumerus -27.4028 -18.6128 -78.0007
rradius 22.7994
rwrist 34.3573
rhand -19.3739 -26.8879
rfingers 7.12502
rthumb 6.94419 -56.754
lclavicle -1.93815e-015 9.14409e-015
lhumerus -23.0042 5.64047 86.0993
lradius 14.6281
lwrist -1.03961
lhand -25.6586 -4.6726
lfingers 7.12502
lthumb 0.875498 25.3054
rfemur -11.5714 -3.41983 20.2405
rtibia 20.0316
rfoot -14.2755 -3.76199
rtoes 13.9112
lfemur -10.419 8.7298 -19.6943
ltibia 16.9939
lfoot -11.6811 3.57372
ltoes 2.71183
149
root 0.583526 17.5957 -13.766 6.82092 -0.521931 -1.14533
lowerback -3.00057 -0.69707 -0.459612
upperback 1.38288 -0.963585 1.79428
thorax 3.14332 -0.50924 2.04941
lowerneck -13.6975 0.470619 -1.85472
upperneck 14.0033 1.02187 0.00193097
head 6.50696 0.393336 0.401022
rclavicle -3.52843e-015 -2.78299e-015
rhumerus -27.3961 -18.5918 -78.0073
rradius 22.8045
rwrist 34.3413
rhand -19.3727 -26.8943
rfingers 7.12502
rthumb 6.94536 -56.7604
lclavicle -3.52843e-015 -2.78299e-015
lhumerus -22.9983 5.66694 86.0958
lradius 14.6286
lwrist -1.04602
lhand -25.6497 -4.63561
lfingers 7.12502
lthumb 0.884027 25.3423
rfemur -11.5659 -3.41683 20.2423
rtibia 20.0321
rfoot -14.275 -3.77058
rtoes 13.8955
lfemur -10.4192 8.72575 -19.6915
ltibia 17.0036
lfoot -11.686 3.57267
ltoes 2.72793
150
root 0.584261 17.5956 -13.7663 6.81623 -0.51595 -1.14918
lowerback -3.00481 -0.701068 -0.458671
upperback 1.3867 -0.969164 1.79854
thorax 3.14993 -0.51211 2.05289
lowerneck -13.7041 0.475906 -1.84971
upperneck 14.0016 1.02982 -0.00815357
head 6.50757 0.396586 0.397746
rclavicle 8.94531e-015 -7.55382e-015
rhumerus -27.3897 -18.5723 -78.0121
rradius 22.8064
rwrist 34.3322
rhand -19.3692 -26.9019
rfingers 7.12502
rthumb 6.94881 -56.7678
lclavicle 8.94531e-015 -7.55382e-015
lhumerus -22.9935 5.68893 86.0941
lradius 14.6274
lwrist -1.05072
lhand -25.6373 -4.59787
lfingers 7.12502
lthumb 0.896012 25.38
rfemur -11.5613 -3.41444 20.2443
rtibia 20.0329
rfoot -14.2734 -3.7806
rtoes 13.8703
lfemur -10.4195 8.72153 -19.6888
ltibia 17.0123
lfoot -11.6907 3.57182
ltoes 2.74126
151
root 0.585003 17.5955 -13.7665 6.81187 -0.511621 -1.15166
lowerback -3.00947 -0.704119 -0.458679
upperback 1.38944 -0.973397 1.80178
thorax 3.15563 -0.514306 2.05593
lowerneck -13.7062 0.481798 -1.84264
upperneck 13.9992 1.03808 -0.0183553
head 6.50719 0.400098 0.394105
rclavicle -1.2921e-015 -7.55382e-015
rhumerus -27.386 -18.5612 -78.0133
rradius 22.8046
rwrist 34.3365
rhand -19.3633 -26.9065
rfingers 7.12502
rthumb 6.95451 -56.7722
lclavicle -1.2921e-015 -7.55382e-015
lhumerus -22.9914 5.70627 86.093
lradius 14.6245
lwrist -1.05811
lhand -25.6244 -4.56572
lfingers 7.12502
lthumb 0.908528 25.4121
rfemur -11.5575 -3.41198 20.2448
rtibia 20.034
rfoot -14.2707 -3.79
rtoes 13.8382
lfemur -10.42 8.71942 -19.688
ltibia 17.0198
lfoot -11.6954 3.57018
ltoes 2.74847
